<?xml version="1.0" encoding="utf-8"?>
<!-- Generator: Adobe Illustrator 24.0.1, SVG Export Plug-In . SVG Version: 6.00 Build 0)  -->
<svg version="1.1" id="Layer_1" xmlns="http://www.w3.org/2000/svg" xmlns:xlink="http://www.w3.org/1999/xlink" x="0px" y="0px"
	 viewBox="0 0 858.6 155.6" style="enable-background:new 0 0 858.6 155.6;" xml:space="preserve">
<style type="text/css">
	.st0{fill:#ED273F;}
	.st1{fill:#051838;}
	.st2{fill:#061838;}
</style>
<g>
	<path class="st0" d="M62.7,155.6c-6.5-1.4-12.9-3.6-18.9-6.6l26.4-45.4h17.7l26.4,45.4c-6,3-12.4,5.2-18.9,6.6L79,127.5L62.7,155.6
		z"/>
	<path class="st0" d="M100.5,94.5l5.5-16.8l51.4-11.1c0.6,3.9,0.9,7.8,0.9,11.6c0,2.7-0.1,5.5-0.5,8.4L126,93.4l21.7,24.2
		c-3.4,5.8-7.4,11.1-12.1,15.9L100.5,94.5z"/>
	<path class="st0" d="M86.8,52.5l5.3-52.3c6.6,1.1,13,3,19.1,5.8L108,38.4l29.7-13.1c4.5,5,8.3,10.5,11.4,16.4l-48,21.2L86.8,52.5z"
		/>
	<path class="st0" d="M9,41.7c3.1-5.9,6.9-11.5,11.4-16.4l29.8,13.1L46.8,6C53,3.3,59.4,1.3,66,0.2l5.3,52.3L57,62.9L9,41.7z"/>
	<path class="st0" d="M22.6,133.6c-4.7-4.8-8.7-10.1-12.1-15.9l21.7-24.2L0.5,86.6C0.2,83.7,0,80.9,0,78.2c0-3.8,0.3-7.8,0.9-11.6
		l51.3,11.1l5.5,16.8L22.6,133.6z"/>
</g>
<g>
	<path class="st1" d="M197.7,87.4c6,2.7,13.5,4.1,21,4.1c9.9,0,18.4-3.1,18.4-11.2c0-17.1-39.6-5.7-39.6-29.6
		c0-12.8,11.2-18,24.4-18c7.9,0,15.5,2,21.4,5.2l-1.7,6.5c-5.5-3.2-12.1-4.9-19.1-4.9c-8.8,0-16.7,3.2-16.7,10.9
		c0,16.9,39.8,5.5,39.8,29.5c0,13.7-12.8,18.4-26.4,18.4c-8.5,0-16.7-1.7-23-4.5L197.7,87.4z"/>
	<path class="st1" d="M308.3,95.3c-5.7,1.7-14.7,3.7-24.8,3.7c-17.5,0-29-5.7-29-19.8c0-15.6,13.2-19.9,29.5-19.9h16v-3.6
		c0-12.8-7.6-16.5-19.1-16.5c-9.2,0-16.7,2.1-21.8,4l-1.6-6.5c6.9-2.4,14.4-4.1,23.4-4.1c15.6,0,27.3,5.7,27.3,23.2L308.3,95.3
		L308.3,95.3z M300,65h-14.7c-11.7,0-22.4,2.8-22.4,14.1c0,9.2,7.3,13.7,21,13.7c5.2,0,11.3-0.7,16.2-2.1L300,65L300,65z"/>
	<path class="st1" d="M323.3,8.7h8.1v70.1c0,10.5,3.2,13.1,8.4,13.1c2.8,0,4.7-0.7,6.4-1.5l1.6,6.3c-2.5,1.2-5.3,2-9.5,2
		c-8.7,0-15.1-4.5-15.1-19.4V8.7H323.3z"/>
	<path class="st1" d="M410,68.6h-51.1c0,17.1,11.9,23.8,26.4,23.8c7.9,0,16.4-1.7,21.1-4.4l2,6.3c-6.4,3.1-14.8,4.8-23.5,4.8
		c-19.3,0-34.7-8.9-34.7-33.6c0-24.2,14.5-32.8,31-32.8c16.9,0,29.1,9.1,29.1,30.6C410.2,64.8,410.1,66.9,410,68.6 M364.6,62.9h37
		c0-17.8-8.7-23.9-20.3-23.9c-11.3,0-22.4,6-22.4,23.5L364.6,62.9z"/>
	<path class="st1" d="M421.1,87.4c6,2.7,13.5,4.1,21,4.1c9.9,0,18.4-3.1,18.4-11.2c0-17.1-39.6-5.7-39.6-29.6
		c0-12.8,11.2-18,24.4-18c7.9,0,15.5,2,21.3,5.2l-1.7,6.5c-5.5-3.2-12.1-4.9-19.1-4.9c-8.8,0-16.7,3.2-16.7,10.9
		c0,16.9,39.8,5.5,39.8,29.5c0,13.7-12.8,18.4-26.4,18.4c-8.5,0-16.7-1.7-23-4.5L421.1,87.4z"/>
	<path class="st1" d="M477.3,34.2l12.1-1.3v-3.7c0-17.9,10.1-24,24.3-24c6.3,0,11.9,1.2,16.5,2.7l-2,10.8c-3.1-0.9-6.8-1.9-11.2-1.9
		c-7.5,0-12.1,2.8-12.1,12.3V33h22.7v11.6h-22.7v53.2h-15.5V44.5h-12.1L477.3,34.2L477.3,34.2z"/>
	<path class="st1" d="M567.4,31.1c18.2,0,35.9,9.5,35.9,34.2s-17.7,34-35.9,34c-18.3,0-36-9.3-36-34S549.1,31.1,567.4,31.1
		 M567.4,42.7c-9.5,0-20,5.3-20,22.5c0,17.1,10.5,22.6,20,22.6c9.3,0,19.9-5.5,19.9-22.5C587.3,48.1,576.8,42.7,567.4,42.7"/>
	<polygon class="st1" points="614.2,7.1 629.7,7.1 629.7,63 659.1,32.9 678.4,32.9 651.9,59.2 680.8,97.7 662.8,97.7 642.3,69.3 
		629.7,81.4 629.7,97.7 614.2,97.7 	"/>
	<path class="st1" d="M751.3,94.1c-6.3,2.9-18.3,5.2-30.8,5.2c-17,0-32.2-6-32.2-26.8V32.9h15.5v39c0,14,8.4,16,16.8,16
		c5.9,0,11.6-1.1,15.2-2.8V32.9h15.5V94.1z"/>
	<polygon class="st1" points="763.2,32.9 822,32.9 823.7,44.5 783.4,86.1 823.7,86.1 823.7,97.7 764,97.7 762.2,86.1 802.6,44.5 
		763.2,44.5 	"/>
</g>
<g>
	<path class="st2" d="M482,146.4v3.2h-21.7v-38.1h3.7v34.9H482z"/>
	<path class="st2" d="M488.2,135.4c0-2.5,0.4-4.7,1.1-6.5c0.7-1.9,1.6-3.4,2.8-4.6c1.2-1.2,2.5-2.2,4-2.8c1.5-0.6,3-0.9,4.6-0.9
		c3.5,0,6.3,1.1,8.3,3.4c2.1,2.3,3.1,5.8,3.1,10.5c0,0.3,0,0.6,0,0.9c0,0.3,0,0.6-0.1,0.8h-20c0.1,3.5,1,6.2,2.6,8
		c1.6,1.9,4.2,2.8,7.7,2.8c1.9,0,3.5-0.2,4.6-0.6c1.1-0.4,2-0.7,2.5-0.9l0.7,3.1c-0.5,0.3-1.5,0.6-2.9,1s-3.1,0.6-5,0.6
		c-2.5,0-4.6-0.4-6.4-1.1c-1.8-0.7-3.2-1.8-4.3-3.1c-1.1-1.3-2-2.9-2.5-4.7C488.5,139.5,488.2,137.5,488.2,135.4z M508.4,133.1
		c-0.1-3-0.8-5.3-2.1-6.9c-1.3-1.7-3.2-2.5-5.6-2.5c-1.3,0-2.4,0.3-3.4,0.8s-1.9,1.2-2.6,2.1c-0.8,0.9-1.3,1.9-1.8,3
		c-0.4,1.1-0.7,2.3-0.7,3.6h16.2V133.1z"/>
	<path class="st2" d="M530.9,120.5c1.9,0,3.5,0.3,4.8,0.8s2.4,1.3,3.2,2.2c0.8,0.9,1.4,2,1.8,3.3c0.4,1.3,0.6,2.7,0.6,4.2v17.9
		c-0.4,0.1-0.9,0.2-1.6,0.4c-0.7,0.1-1.5,0.3-2.4,0.4c-0.9,0.1-1.9,0.3-3.1,0.4c-1.1,0.1-2.3,0.1-3.4,0.1c-1.5,0-2.9-0.2-4.2-0.5
		s-2.4-0.9-3.3-1.6c-0.9-0.7-1.7-1.6-2.2-2.8s-0.8-2.5-0.8-4.1c0-1.5,0.3-2.9,0.9-4c0.6-1.1,1.4-2,2.5-2.7s2.3-1.2,3.8-1.6
		c1.5-0.3,3.1-0.5,4.8-0.5c0.5,0,1.1,0,1.6,0.1c0.6,0.1,1.1,0.1,1.7,0.2s1,0.2,1.4,0.3s0.7,0.2,0.8,0.2v-1.8c0-1-0.1-2-0.2-2.9
		c-0.1-0.9-0.5-1.8-1-2.5c-0.5-0.8-1.2-1.4-2.1-1.8c-0.9-0.5-2.1-0.7-3.5-0.7c-2.1,0-3.6,0.1-4.7,0.4c-1,0.3-1.8,0.5-2.3,0.7
		l-0.5-3.1c0.6-0.3,1.6-0.6,2.9-0.8C527.5,120.6,529.1,120.5,530.9,120.5z M531.2,147c1.4,0,2.6,0,3.7-0.1c1-0.1,1.9-0.2,2.7-0.4
		v-10c-0.4-0.2-1-0.4-1.9-0.6c-0.9-0.2-2.1-0.3-3.6-0.3c-0.9,0-1.8,0.1-2.8,0.2c-1,0.1-1.8,0.4-2.6,0.8c-0.8,0.4-1.5,1-2,1.7
		s-0.8,1.7-0.8,2.9c0,1.1,0.2,2,0.5,2.7s0.8,1.3,1.5,1.8c0.6,0.4,1.4,0.8,2.3,1C529.1,146.9,530.1,147,531.2,147z"/>
	<path class="st2" d="M575.1,148.7c-1.1,0.4-2.4,0.7-4.1,1s-3.7,0.5-6.3,0.5c-2.1,0-4-0.3-5.7-1s-3.2-1.7-4.4-2.9
		c-1.2-1.3-2.2-2.8-2.9-4.7c-0.7-1.8-1-3.9-1-6.2c0-2.2,0.3-4.2,0.9-6c0.6-1.8,1.4-3.4,2.5-4.7c1.1-1.3,2.4-2.3,4-3.1
		c1.6-0.7,3.4-1.1,5.5-1.1c1.9,0,3.5,0.3,4.9,0.8s2.4,1,3,1.5v-15.3l3.6-0.7V148.7z M571.5,126.3c-0.3-0.3-0.7-0.5-1.2-0.8
		s-1.1-0.6-1.7-0.8c-0.7-0.3-1.4-0.5-2.1-0.6s-1.6-0.2-2.4-0.2c-1.8,0-3.2,0.3-4.4,0.9s-2.2,1.5-2.9,2.5s-1.3,2.3-1.6,3.7
		s-0.5,2.9-0.5,4.5c0,3.7,0.9,6.6,2.8,8.6c1.9,2,4.3,3,7.4,3c1.8,0,3.2-0.1,4.3-0.2c1.1-0.2,1.9-0.3,2.4-0.5L571.5,126.3
		L571.5,126.3z"/>
	<path class="st2" d="M592.6,147.1c2.1,0,3.7-0.3,5.1-1c1.3-0.7,2-1.8,2-3.4c0-0.8-0.1-1.4-0.4-2c-0.2-0.5-0.6-1-1.2-1.5
		c-0.5-0.4-1.3-0.9-2.2-1.3c-0.9-0.4-2-0.9-3.3-1.4c-1.1-0.4-2.1-0.9-3-1.3c-1-0.5-1.8-1-2.5-1.6s-1.3-1.3-1.8-2.2
		c-0.4-0.8-0.7-1.9-0.7-3.1c0-2.3,0.9-4.2,2.6-5.6c1.7-1.4,4.1-2.1,7.2-2.1c1.9,0,3.5,0.2,4.8,0.5s2.2,0.6,2.7,0.9l-0.8,3.2
		c-0.4-0.2-1.2-0.5-2.2-0.9s-2.6-0.5-4.6-0.5c-0.8,0-1.6,0.1-2.3,0.2s-1.3,0.4-1.9,0.8c-0.6,0.3-1,0.8-1.3,1.3s-0.5,1.2-0.5,2
		s0.1,1.4,0.4,2c0.3,0.6,0.7,1,1.3,1.5c0.6,0.4,1.3,0.8,2.1,1.2s1.8,0.8,2.8,1.2c1.1,0.4,2.2,0.9,3.2,1.3c1,0.5,1.9,1,2.7,1.6
		s1.4,1.4,1.9,2.3s0.7,2,0.7,3.4c0,2.6-1,4.5-2.9,5.8s-4.6,2-7.9,2c-2.5,0-4.4-0.2-5.7-0.6c-1.3-0.4-2.2-0.7-2.6-1l0.9-3.2
		c0.1,0.1,0.3,0.2,0.7,0.4s0.9,0.3,1.5,0.5s1.4,0.4,2.2,0.5S591.4,147.1,592.6,147.1z"/>
	<path class="st2" d="M630.6,121.2h11.3v3h-11.3v15.1c0,1.6,0.1,2.9,0.4,3.9c0.3,1,0.7,1.8,1.2,2.3s1.1,0.9,1.9,1.1
		c0.7,0.2,1.5,0.3,2.4,0.3c1.5,0,2.7-0.2,3.6-0.5c0.9-0.3,1.6-0.7,2.1-1l0.9,3c-0.5,0.3-1.4,0.7-2.7,1.1c-1.3,0.4-2.7,0.6-4.2,0.6
		c-1.8,0-3.2-0.2-4.4-0.7s-2.1-1.2-2.9-2.1c-0.7-0.9-1.2-2.1-1.5-3.5s-0.4-3-0.4-5v-26.2l3.6-0.7L630.6,121.2L630.6,121.2z"/>
	<path class="st2" d="M674.9,135.4c0,2.2-0.3,4.3-1,6.1c-0.6,1.8-1.5,3.4-2.7,4.7s-2.5,2.3-4.1,3s-3.3,1.1-5.2,1.1s-3.6-0.4-5.2-1.1
		c-1.6-0.7-2.9-1.7-4.1-3c-1.2-1.3-2.1-2.8-2.7-4.7c-0.6-1.8-1-3.9-1-6.1c0-2.2,0.3-4.3,1-6.1c0.6-1.8,1.5-3.4,2.7-4.7
		c1.2-1.3,2.5-2.3,4.1-3s3.3-1.1,5.2-1.1s3.6,0.4,5.2,1.1c1.6,0.7,2.9,1.7,4.1,3s2.1,2.9,2.7,4.7
		C674.6,131.1,674.9,133.2,674.9,135.4z M671.2,135.4c0-3.6-0.8-6.4-2.5-8.5c-1.7-2.1-3.9-3.2-6.7-3.2s-5.1,1.1-6.7,3.2
		c-1.7,2.1-2.5,4.9-2.5,8.5s0.8,6.4,2.5,8.5c1.6,2.1,3.9,3.1,6.7,3.1s5.1-1,6.7-3.1S671.2,139,671.2,135.4z"/>
	<path class="st2" d="M708.1,147.2c3,0,5.3-0.5,6.9-1.6s2.5-2.8,2.5-5.3c0-1.4-0.3-2.6-0.8-3.5s-1.2-1.7-2.1-2.4
		c-0.9-0.6-1.9-1.2-3-1.6s-2.3-0.9-3.6-1.4c-1.6-0.6-3-1.3-4.2-1.9c-1.2-0.7-2.3-1.4-3.2-2.2s-1.5-1.8-2-2.8
		c-0.5-1.1-0.7-2.3-0.7-3.7c0-3.3,1.1-5.7,3.2-7.4c2.2-1.7,5.2-2.5,9-2.5c1,0,2,0.1,3,0.2s1.9,0.3,2.8,0.6c0.9,0.2,1.7,0.5,2.4,0.8
		s1.3,0.6,1.8,0.9l-1.3,3.1c-1.1-0.7-2.4-1.3-3.9-1.8c-1.5-0.4-3.2-0.7-4.9-0.7c-1.2,0-2.3,0.1-3.3,0.4c-1,0.2-1.9,0.6-2.6,1.2
		c-0.7,0.5-1.3,1.2-1.7,2s-0.6,1.8-0.6,2.9c0,1.2,0.2,2.2,0.7,3c0.4,0.8,1.1,1.5,1.8,2.1c0.8,0.6,1.7,1.1,2.8,1.6s2.2,1,3.5,1.5
		c1.5,0.6,2.9,1.2,4.3,1.9c1.3,0.6,2.5,1.4,3.5,2.2s1.8,1.9,2.4,3.1s0.9,2.7,0.9,4.5c0,3.4-1.2,6-3.6,7.8s-5.7,2.6-9.8,2.6
		c-1.5,0-2.8-0.1-4-0.3s-2.3-0.4-3.2-0.7c-1-0.3-1.8-0.6-2.4-0.9c-0.7-0.3-1.2-0.5-1.5-0.8l1.2-3.2c0.4,0.2,0.9,0.5,1.5,0.8
		s1.4,0.6,2.2,0.9c0.8,0.3,1.8,0.5,2.9,0.7C705.6,147.1,706.8,147.2,708.1,147.2z"/>
	<path class="st2" d="M738.9,120.5c1.9,0,3.5,0.3,4.8,0.8s2.4,1.3,3.2,2.2c0.8,0.9,1.4,2,1.8,3.3c0.4,1.3,0.5,2.7,0.5,4.2v17.9
		c-0.4,0.1-0.9,0.2-1.6,0.4c-0.7,0.1-1.5,0.3-2.4,0.4c-0.9,0.1-1.9,0.3-3.1,0.4c-1.1,0.1-2.3,0.1-3.4,0.1c-1.5,0-2.9-0.2-4.2-0.5
		s-2.4-0.9-3.3-1.6c-0.9-0.7-1.7-1.6-2.2-2.8c-0.5-1.1-0.8-2.5-0.8-4.1c0-1.5,0.3-2.9,0.9-4c0.6-1.1,1.4-2,2.5-2.7s2.3-1.2,3.8-1.6
		c1.5-0.3,3.1-0.5,4.8-0.5c0.5,0,1.1,0,1.6,0.1c0.6,0.1,1.1,0.1,1.7,0.2c0.5,0.1,1,0.2,1.4,0.3s0.7,0.2,0.8,0.2v-1.8
		c0-1-0.1-2-0.2-2.9c-0.1-0.9-0.5-1.8-1-2.5c-0.5-0.8-1.2-1.4-2.1-1.8c-0.9-0.5-2.1-0.7-3.5-0.7c-2.1,0-3.6,0.1-4.7,0.4
		c-1,0.3-1.8,0.5-2.3,0.7l-0.5-3.1c0.6-0.3,1.6-0.6,2.9-0.8C735.5,120.6,737.1,120.5,738.9,120.5z M739.2,147c1.4,0,2.6,0,3.7-0.1
		c1-0.1,1.9-0.2,2.7-0.4v-10c-0.4-0.2-1-0.4-1.9-0.6c-0.9-0.2-2.1-0.3-3.6-0.3c-0.9,0-1.8,0.1-2.8,0.2c-1,0.1-1.8,0.4-2.6,0.8
		c-0.8,0.4-1.5,1-2,1.7s-0.8,1.7-0.8,2.9c0,1.1,0.2,2,0.5,2.7s0.8,1.3,1.5,1.8c0.6,0.4,1.4,0.8,2.3,1
		C737.1,146.9,738.1,147,739.2,147z"/>
	<path class="st2" d="M767.7,150.1c-1.2,0-2.3-0.2-3.2-0.5s-1.7-0.7-2.3-1.3s-1.1-1.3-1.4-2.2c-0.3-0.9-0.5-2-0.5-3.4v-35.2l3.6-0.7
		v35.8c0,0.9,0.1,1.6,0.2,2.1c0.2,0.5,0.4,1,0.7,1.3s0.8,0.5,1.3,0.7c0.5,0.1,1.2,0.3,1.9,0.4L767.7,150.1z"/>
	<path class="st2" d="M775,135.4c0-2.5,0.4-4.7,1.1-6.5c0.7-1.9,1.6-3.4,2.8-4.6s2.5-2.2,4-2.8c1.5-0.6,3-0.9,4.6-0.9
		c3.5,0,6.3,1.1,8.3,3.4s3.1,5.8,3.1,10.5c0,0.3,0,0.6,0,0.9c0,0.3,0,0.6-0.1,0.8h-20c0.1,3.5,1,6.2,2.6,8c1.6,1.9,4.2,2.8,7.7,2.8
		c1.9,0,3.5-0.2,4.6-0.6c1.1-0.4,2-0.7,2.5-0.9l0.7,3.1c-0.5,0.3-1.5,0.6-2.9,1s-3.1,0.6-5,0.6c-2.5,0-4.6-0.4-6.4-1.1
		s-3.2-1.8-4.3-3.1s-2-2.9-2.5-4.7C775.2,139.5,775,137.5,775,135.4z M795.2,133.1c-0.1-3-0.8-5.3-2.1-6.9c-1.3-1.7-3.2-2.5-5.6-2.5
		c-1.3,0-2.4,0.3-3.4,0.8s-1.9,1.2-2.6,2.1c-0.8,0.9-1.3,1.9-1.8,3c-0.4,1.1-0.7,2.3-0.7,3.6h16.2V133.1z"/>
	<path class="st2" d="M814.9,147.1c2.1,0,3.7-0.3,5.1-1c1.3-0.7,2-1.8,2-3.4c0-0.8-0.1-1.4-0.4-2c-0.2-0.5-0.6-1-1.2-1.5
		c-0.5-0.4-1.3-0.9-2.2-1.3s-2-0.9-3.3-1.4c-1.1-0.4-2.1-0.9-3-1.3c-1-0.5-1.8-1-2.5-1.6s-1.3-1.3-1.8-2.2c-0.4-0.8-0.7-1.9-0.7-3.1
		c0-2.3,0.9-4.2,2.6-5.6c1.7-1.4,4.1-2.1,7.2-2.1c1.9,0,3.5,0.2,4.8,0.5s2.2,0.6,2.7,0.9l-0.8,3.2c-0.4-0.2-1.2-0.5-2.2-0.9
		s-2.6-0.5-4.6-0.5c-0.8,0-1.6,0.1-2.3,0.2s-1.3,0.4-1.9,0.8c-0.5,0.3-1,0.8-1.3,1.3s-0.5,1.2-0.5,2s0.1,1.4,0.4,2
		c0.3,0.6,0.7,1,1.3,1.5c0.6,0.4,1.3,0.8,2.1,1.2s1.8,0.8,2.8,1.2c1.1,0.4,2.2,0.9,3.2,1.3c1,0.5,1.9,1,2.7,1.6s1.4,1.4,1.9,2.3
		s0.7,2,0.7,3.4c0,2.6-1,4.5-2.9,5.8s-4.6,2-7.9,2c-2.5,0-4.4-0.2-5.7-0.6s-2.2-0.7-2.6-1l0.9-3.2c0.1,0.1,0.3,0.2,0.7,0.4
		s0.9,0.3,1.5,0.5s1.4,0.4,2.2,0.5C812.7,147,813.7,147.1,814.9,147.1z"/>
</g>
</svg>
